Genre:Comedy | Drama | Musical
Language:English 
http://www.imdb.com/title/tt1336608/
Source:Russian/Echo Thanks
Encoder:Tony

Format : AVI
Format/Info : Audio Video Interleave
File size : 1.40 GiB
Duration : 1h 56mn
Overall bit rate : 1 730 Kbps

Video
ID : 0
Format : MPEG-4 Visual
Format profile : Advanced Simple@L5
Format settings, BVOP : 1
Format settings, QPel : No
Format settings, GMC : No warppoints
Format settings, Matrix : Default (H.263)
Codec ID : XVID
Codec ID/Hint : XviD
Duration : 1h 56mn
Bit rate : 1 496 Kbps
Width : 640 pixels
Height : 296 pixels
Display aspect ratio : 2.2:1
Frame rate : 25.000 fps
Color space : YUV
Chroma subsampling : 4:2:0
Bit depth : 8 bits
Scan type : Progressive
Compression mode : Lossy
Bits/(Pixel*Frame) : 0.316
Stream size : 1.21 GiB (86%)
Writing library : XviD 1.2.1 (UTC 2008-12-04)

Audio
ID : 1
Format : AC-3
Format/Info : Audio Coding 3
Mode extension : CM (complete main)
Codec ID : 2000
Duration : 1h 56mn
Bit rate mode : Constant
Bit rate : 224 Kbps
Channel(s) : 2 channels
Channel positions : Front: L R
Sampling rate : 48.0 KHz
Bit depth : 16 bits
Compression mode : Lossy
Stream size : 186 MiB (13%)
Alignment : Aligned on interleaves
Interleave, duration : 40 ms (1.00 video frame)
Interleave, preload duration : 512 ms


Plot:
A small town girl and a city boy meet on the Sunset Strip, while pursuing their Hollywood dreams.
 
http://img525.imageshack.us/img525/992/vlcsnap2012080118h21m14.png 
http://img4.imageshack.us/img4/7531/vlcsnap2012080118h24m44.png 
http://img338.imageshack.us/img338/5407/vlcsnap2012080118h24m38.png 
http://img441.imageshack.us/img441/5535/vlcsnap2012080118h22m00.png